<svg xmlns="http://www.w3.org/2000/svg" xmlns:xlink="http://www.w3.org/1999/xlink" viewBox="0 0 476.68 90.77"><defs><style>.cls-1{fill:url(#linear-gradient);}.cls-2{fill:url(#linear-gradient-2);}.cls-3{fill:url(#linear-gradient-3);}.cls-4{fill:url(#linear-gradient-4);}.cls-5{fill:url(#linear-gradient-5);}.cls-6{fill:url(#linear-gradient-6);}</style><linearGradient id="linear-gradient" x1="140.33" y1="122.16" x2="158.33" y2="-16.22" gradientUnits="userSpaceOnUse"><stop offset="0.01" stop-color="#610000"/><stop offset="1" stop-color="red"/></linearGradient><linearGradient id="linear-gradient-2" x1="366.94" y1="160.5" x2="248.82" y2="36.75" gradientUnits="userSpaceOnUse"><stop offset="0.01" stop-color="#000355"/><stop offset="1" stop-color="#03002a"/></linearGradient><linearGradient id="linear-gradient-3" x1="413.71" y1="115.86" x2="295.58" y2="-7.89" xlink:href="#linear-gradient-2"/><linearGradient id="linear-gradient-4" x1="466.23" y1="65.72" x2="348.1" y2="-58.03" xlink:href="#linear-gradient-2"/><linearGradient id="linear-gradient-5" x1="48.67" y1="89.73" x2="45.72" y2="36.61" xlink:href="#linear-gradient-2"/><linearGradient id="linear-gradient-6" x1="47.79" y1="60.86" x2="44.06" y2="-6.4" xlink:href="#linear-gradient"/></defs><title>Asset 1</title><g id="Layer_2" data-name="Layer 2"><g id="Layer_1-2" data-name="Layer 1"><path class="cls-1" d="M191.3,53.07H135.76C138,62,144.64,67.14,154.51,67.14c7.47,0,12.4-2.43,17.62-7.6l14.09,16.82c-7.33,9.39-18,14.24-32.56,14.24-27.2,0-44.82-19.25-44.82-45.46,0-26.37,17.9-45.14,42-45.14,22.56,0,40.88,16.5,40.88,45.46C191.72,47.73,191.44,50.64,191.3,53.07Zm-56-16.18h31.29c-1.41-9.22-7.33-15-15.65-15S136.89,27.67,135.34,36.89Z"/><path class="cls-2" d="M244.26,76l-16-55.92V80.71c0,3.36-.85,5.87-2.55,7.55a10.3,10.3,0,0,1-13.44,0c-1.73-1.66-2.59-4.18-2.59-7.58V11.26c0-3.84,1.14-6.42,3.41-7.76s5.33-2,9.18-2h6.27a27.29,27.29,0,0,1,8.2.89,6.54,6.54,0,0,1,3.77,3.24,45.57,45.57,0,0,1,2.79,7.6l14.5,48.08,14.5-48.08a45.57,45.57,0,0,1,2.79-7.6,6.53,6.53,0,0,1,3.78-3.24,27.24,27.24,0,0,1,8.2-.89h6.26c3.85,0,6.92.67,9.19,2s3.4,3.92,3.4,7.76V80.71c0,3.36-.85,5.87-2.55,7.55a9.34,9.34,0,0,1-6.84,2.51,9.13,9.13,0,0,1-6.61-2.51c-1.72-1.68-2.58-4.19-2.58-7.55V20.12L271.34,76c-1,3.64-1.89,6.3-2.55,8a11.18,11.18,0,0,1-3.64,4.64,11.62,11.62,0,0,1-7.35,2.09,12.39,12.39,0,0,1-6-1.34A10.46,10.46,0,0,1,248,86a18.07,18.07,0,0,1-2.14-4.64Q245.07,78.81,244.26,76Z"/><path class="cls-3" d="M377.24,61.55H340.9a19.67,19.67,0,0,0,2.55,9.82,16.35,16.35,0,0,0,6.61,6.41,19.23,19.23,0,0,0,9.08,2.16,25.1,25.1,0,0,0,6.09-.69,21.3,21.3,0,0,0,5.35-2.16A40.85,40.85,0,0,0,375.34,74q2.18-1.68,5.65-4.55a6.65,6.65,0,0,1,4.08-1.08,7.31,7.31,0,0,1,4.63,1.38,4.63,4.63,0,0,1,1.77,3.89,9.83,9.83,0,0,1-2,5.18,22.1,22.1,0,0,1-6,5.69,36,36,0,0,1-10,4.52,48.88,48.88,0,0,1-13.85,1.79q-17.91,0-27.84-9t-9.94-24.37A36.29,36.29,0,0,1,324.36,44a29.31,29.31,0,0,1,7.15-10.63,31.51,31.51,0,0,1,11.57-6.79,46.5,46.5,0,0,1,15.24-2.37q10.89,0,18.69,4a28.66,28.66,0,0,1,11.67,10.45,24.89,24.89,0,0,1,3.88,13q0,6.18-4,8T377.24,61.55ZM340.9,52.27h33.69q-.68-8.39-5.14-12.54t-11.74-4.16a15.88,15.88,0,0,0-11.4,4.22Q341.85,44,340.9,52.27Z"/><path class="cls-4" d="M459.12,81.43V79.82A45.66,45.66,0,0,1,451.74,86a29.32,29.32,0,0,1-7.9,3.6,33.73,33.73,0,0,1-9.29,1.22,30.58,30.58,0,0,1-12.35-2.48,28.4,28.4,0,0,1-9.84-7.1,31.15,31.15,0,0,1-6.29-10.84,41.08,41.08,0,0,1-2.15-13.47q0-15.33,8.51-23.89t22.39-8.56a33.76,33.76,0,0,1,13.55,2.42,37.65,37.65,0,0,1,10.75,7.46V10.18q0-5,2.28-7.61A8.25,8.25,0,0,1,467.9,0a8.64,8.64,0,0,1,6.5,2.36q2.28,2.37,2.28,7V81.43c0,3.12-.82,5.45-2.45,7a8.81,8.81,0,0,1-6.33,2.33,8.68,8.68,0,0,1-6.3-2.42C460,86.73,459.12,84.43,459.12,81.43Zm-36.55-24a25,25,0,0,0,2.35,11.32,16.37,16.37,0,0,0,6.43,7,17.46,17.46,0,0,0,8.92,2.37,18.13,18.13,0,0,0,9-2.25A16,16,0,0,0,455.68,69a25,25,0,0,0,2.42-11.59,24.33,24.33,0,0,0-2.42-11.23A17.54,17.54,0,0,0,449.15,39a17.11,17.11,0,0,0-9-2.49,16.35,16.35,0,0,0-15.35,9.85A26.07,26.07,0,0,0,422.57,57.42Z"/><path class="cls-5" d="M93.25,48.64h0a8.56,8.56,0,0,1-8.56,8.56H59.16v8A25.27,25.27,0,0,1,33.89,90.51h0V57.2H0V48.28H36a.4.4,0,0,0,.31-.18c.3-.62.6-1.25.85-1.9,1.07-2.69,2.12-5.38,3.19-8.08.14-.38.3-.75.49-1.23Q43.4,43.44,45.93,50l.07.17q2.72,7.05,5.43,14.12l.19-.39c1.31-3.21,2.63-6.43,3.93-9.65.71-1.72,1.4-3.46,2.08-5.2.1-.25.24-.32.53-.32,2.78,0,5.56,0,8.34,0H93.25Z"/><path class="cls-6" d="M93.25,33.31V46.73L67,46.71l-4.79,0-5.72,0a.62.62,0,0,0-.43.2c-.31.63-.61,1.28-.88,1.93q-1.44,3.59-2.86,7.18l-.81,2h-.09c-.1-.25-.2-.5-.29-.75v-.1l-2.94-7.56c-2.44-6.24-4.86-12.46-7.3-18.72l-.06-.14-.13.31c-1.33,3.31-2.68,6.62-4,9.94-.66,1.64-1.31,3.28-1.93,4.92a.55.55,0,0,1-.62.39c-2.05,0-4.09,0-6.12,0l-28,0H0A13.08,13.08,0,0,1,13.08,33.31H33.89v-8A25.27,25.27,0,0,1,59.16,0h0V33.31Z"/></g></g></svg>